<svg width="24" height="25" viewBox="0 0 24 25" fill="none" xmlns="http://www.w3.org/2000/svg">
<path d="M8.69934 6.03159L7.98181 4.29932" stroke="white" stroke-width="2" stroke-linecap="round" stroke-linejoin="round"/>
<path d="M4.03159 10.6995L2.29932 9.98193" stroke="white" stroke-width="2" stroke-linecap="round" stroke-linejoin="round"/>
<path d="M19.9685 10.6995L21.7008 9.98193" stroke="white" stroke-width="2" stroke-linecap="round" stroke-linejoin="round"/>
<path d="M15.3007 6.03159L16.0182 4.29932" stroke="white" stroke-width="2" stroke-linecap="round" stroke-linejoin="round"/>
<path d="M22.5 15.5H1.5" stroke="white" stroke-width="2" stroke-linecap="round" stroke-linejoin="round"/>
<path d="M19.5 19.25H4.5" stroke="white" stroke-width="2" stroke-linecap="round" stroke-linejoin="round"/>
<path d="M6.57722 15.5001C6.34705 14.665 6.31285 13.7881 6.47728 12.9376C6.6417 12.0871 7.00032 11.2862 7.52517 10.5971C8.05002 9.90799 8.72692 9.34942 9.50311 8.96492C10.2793 8.58042 11.1338 8.38037 12 8.38037C12.8662 8.38037 13.7207 8.58042 14.4969 8.96492C15.2731 9.34942 15.95 9.90798 16.4748 10.5971C16.9997 11.2862 17.3583 12.0871 17.5227 12.9376C17.6872 13.788 17.653 14.665 17.4228 15.5" stroke="white" stroke-width="2" stroke-linecap="round" stroke-linejoin="round"/>
</svg>
