<svg width="24" height="24" viewBox="0 0 24 24" fill="none" xmlns="http://www.w3.org/2000/svg">
<path d="M5.56067 3.75H18.4394C18.5877 3.75 18.7327 3.79399 18.856 3.8764C18.9794 3.95881 19.0755 4.07594 19.1323 4.21299C19.189 4.35003 19.2039 4.50083 19.1749 4.64632C19.146 4.7918 19.0746 4.92544 18.9697 5.03033L12 12L5.03034 5.03033C4.92545 4.92544 4.85402 4.7918 4.82508 4.64632C4.79614 4.50083 4.81099 4.35003 4.86776 4.21299C4.92453 4.07594 5.02065 3.95881 5.14399 3.8764C5.26733 3.79399 5.41233 3.75 5.56067 3.75Z" stroke="white" stroke-linecap="round" stroke-linejoin="round"/>
<path d="M5.56067 20.25H18.4394C18.5877 20.25 18.7327 20.206 18.856 20.1236C18.9794 20.0412 19.0755 19.9241 19.1323 19.787C19.189 19.65 19.2039 19.4992 19.1749 19.3537C19.146 19.2082 19.0746 19.0746 18.9697 18.9697L12 12L5.03034 18.9697C4.92545 19.0746 4.85402 19.2082 4.82508 19.3537C4.79614 19.4992 4.81099 19.65 4.86776 19.787C4.92453 19.9241 5.02065 20.0412 5.14399 20.1236C5.26733 20.206 5.41233 20.25 5.56067 20.25Z" stroke="white" stroke-linecap="round" stroke-linejoin="round"/>
<path d="M6.75 6.75H17.25" stroke="white" stroke-linecap="round" stroke-linejoin="round"/>
</svg>
