<svg width="24" height="25" viewBox="0 0 24 25" fill="none" xmlns="http://www.w3.org/2000/svg">
<path d="M14.2495 19.9994V15.4993C14.2495 15.3004 14.1704 15.1096 14.0298 14.969C13.8891 14.8283 13.6984 14.7493 13.4995 14.7493H10.4995C10.3005 14.7493 10.1098 14.8283 9.96912 14.969C9.82847 15.1096 9.74945 15.3004 9.74945 15.4993V19.9994C9.74945 20.1983 9.67045 20.389 9.52981 20.5297C9.38918 20.6703 9.19844 20.7494 8.99954 20.7494L4.50009 20.75C4.40159 20.75 4.30406 20.7306 4.21305 20.6929C4.12205 20.6552 4.03936 20.6 3.9697 20.5303C3.90005 20.4607 3.8448 20.378 3.8071 20.287C3.7694 20.196 3.75 20.0985 3.75 20V11.3318C3.75 11.2273 3.77183 11.124 3.8141 11.0284C3.85637 10.9329 3.91814 10.8472 3.99545 10.7769L11.4949 3.95803C11.633 3.8325 11.8129 3.76295 11.9995 3.76294C12.186 3.76293 12.3659 3.83248 12.504 3.95799L20.0045 10.7769C20.0818 10.8472 20.1436 10.9329 20.1859 11.0284C20.2282 11.124 20.25 11.2274 20.25 11.3319V20C20.25 20.0985 20.2306 20.196 20.1929 20.287C20.1552 20.378 20.1 20.4607 20.0303 20.5304C19.9606 20.6 19.878 20.6552 19.7869 20.6929C19.6959 20.7306 19.5984 20.75 19.4999 20.75L14.9994 20.7494C14.8005 20.7494 14.6097 20.6703 14.4691 20.5297C14.3285 20.389 14.2494 20.1983 14.2495 19.9994V19.9994Z" stroke="white" stroke-width="2" stroke-linecap="round" stroke-linejoin="round"/>
</svg>
