<svg width="16" height="17" viewBox="0 0 16 17" fill="none" xmlns="http://www.w3.org/2000/svg">
<path d="M6 13.9999H3C2.86739 13.9999 2.74021 13.9472 2.64645 13.8535C2.55268 13.7597 2.5 13.6325 2.5 13.4999V10.707C2.5 10.6414 2.51293 10.5764 2.53806 10.5157C2.56319 10.455 2.60002 10.3999 2.64645 10.3535L10.1464 2.85348C10.2402 2.75971 10.3674 2.70703 10.5 2.70703C10.6326 2.70703 10.7598 2.75971 10.8536 2.85348L13.6464 5.64637C13.7402 5.74014 13.7929 5.86732 13.7929 5.99992C13.7929 6.13253 13.7402 6.25971 13.6464 6.35348L6 13.9999Z" stroke="white" stroke-linecap="round" stroke-linejoin="round"/>
<path d="M8.5 4.5L12 8" stroke="white" stroke-linecap="round" stroke-linejoin="round"/>
<path d="M13.5 13.9999H6.00005L2.53186 10.5317" stroke="white" stroke-linecap="round" stroke-linejoin="round"/>
</svg>
